<?xml version="1.0" standalone="no"?>
<!DOCTYPE svg PUBLIC "-//W3C//DTD SVG 20010904//EN"
 "http://www.w3.org/TR/2001/REC-SVG-20010904/DTD/svg10.dtd">
<svg version="1.0" xmlns="http://www.w3.org/2000/svg"
 width="512.000000pt" height="512.000000pt" viewBox="0 0 512.000000 512.000000"
 preserveAspectRatio="xMidYMid meet">

<g transform="translate(0.000000,512.000000) scale(0.100000,-0.100000)"
fill="#000000" stroke="none">
<path d="M4353 5105 c-166 -45 -289 -170 -328 -336 -13 -56 -15 -330 -15
-2209 0 -2347 -3 -2211 58 -2324 35 -65 114 -144 178 -178 251 -135 543 -22
648 251 l21 56 3 2140 c2 1434 -1 2166 -8 2219 -35 269 -300 450 -557 381z"/>
<path d="M540 5066 c-221 -60 -368 -284 -331 -503 7 -38 26 -97 43 -133 28
-60 102 -137 932 -967 l901 -903 -901 -903 c-830 -830 -904 -907 -932 -967
-112 -234 -19 -496 215 -608 76 -36 81 -37 188 -37 124 1 181 18 265 80 25 19
502 492 1061 1052 1069 1071 1054 1054 1109 1199 31 82 38 226 15 313 -21 81
-60 159 -118 236 -25 33 -502 515 -1059 1071 -1083 1082 -1043 1044 -1169
1073 -59 14 -164 12 -219 -3z"/>
</g>
</svg>
